<?xml version="1.0" encoding="utf-8"?>
<!-- Generator: Adobe Illustrator 17.0.1, SVG Export Plug-In . SVG Version: 6.00 Build 0)  -->
<!DOCTYPE svg PUBLIC "-//W3C//DTD SVG 1.1//EN" "http://www.w3.org/Graphics/SVG/1.1/DTD/svg11.dtd">
<svg version="1.1" id="Layer_3" xmlns="http://www.w3.org/2000/svg" xmlns:xlink="http://www.w3.org/1999/xlink" x="0px" y="0px"
	 width="202.664px" height="202.664px" viewBox="0 0 202.664 202.664" enable-background="new 0 0 202.664 202.664"
	 xml:space="preserve">
<g>
	<path d="M6.478,78.459c2.185-8.132,7.508-12.887,13.557-16.725c8.993-5.706,18.754-8.93,28.727-11.232
		c6.226-1.437,12.521-2.542,18.822-3.448c5.801-0.834,11.647-1.287,17.483-1.745c3.856-0.303,7.729-0.397,11.595-0.442
		c6.064-0.07,12.136-0.239,18.19,0.047c5.532,0.261,11.044,1.073,16.566,1.633c1.504,0.153,3.01,0.272,4.649,0.418
		c0-7.121,0-14.139,0-21.414c3.785-0.3,7.479-0.191,10.713,1.882c3.317,2.126,6.451,4.722,9.43,7.459
		c5.253,4.826,7.855,6.831,15.308,7.583c-2.239,3.308-4.928,5.137-8.359,5.378c-4.519,0.317-8.709-1.524-12.98-2.812
		c-3.141-0.947-6.316-1.694-9.522-0.587c-1.288,0.445-2.469,1.313-3.698,1.989c0.022,0.188,0.045,0.376,0.067,0.564
		c1.309,0.285,2.61,0.64,3.928,0.843c11.591,1.786,22.967,4.7,33.862,9.653c6.217,2.826,12.233,6.288,16.907,12.148
		c2.82,3.536,4.477,7.497,4.463,12.523c-0.084,29.588-0.041,59.176-0.042,88.764c0,3.558-1.148,4.903-4.188,4.903
		c-23.585,0.001-171.94-0.075-180.891,0.057c-2.064,0.03-3.501-0.719-4.588-2.642C6.478,141.657,6.478,110.058,6.478,78.459z
		 M188.366,166.694c0-0.657,0-1.147,0-1.637c0-27.572,0.038-55.144-0.084-82.716c-0.008-1.846-0.884-4.029-1.945-5.468
		c-4.282-5.808-10.139-8.766-16.15-11.376c-13.536-5.878-27.686-8.385-41.935-10.255c-5.516-0.724-11.082-1.185-16.631-1.277
		c-7.565-0.125-15.14,0.096-22.704,0.402c-5.489,0.222-10.973,0.727-16.446,1.284c-4.231,0.431-8.489,0.855-12.65,1.79
		c-6.507,1.462-12.987,3.159-19.399,5.113c-7.496,2.283-14.811,5.259-21.072,10.798c-3.134,2.772-5.228,6.055-5.187,11.282
		c0.206,26.493,0.095,52.989,0.095,79.484c0,0.836,0,1.673,0,2.526c21.471,0,42.726,0,64.087,0c0-1,0-1.853,0-2.706
		c0-23.982-0.002-47.964,0.008-71.946c0-0.774,0.029-1.572,0.187-2.317c0.739-3.466,3.286-3.807,5.611-3.833
		c11.419-0.126,22.841-0.204,34.258,0.021c4.041,0.08,5.932,1.151,5.909,7.13c-0.091,23.694-0.037,47.389-0.037,71.084
		c0,0.84,0,1.68,0,2.616C145.681,166.694,166.892,166.694,188.366,166.694z"/>
	<path d="M80.196,39.908c0-0.667,0-1.418,0-2.169c0-5.813,0.027-11.626-0.023-17.439c-0.01-1.157,0.205-1.845,1.233-2.161
		c7.246-2.22,14.252-1.836,21.07,2.126c4.747,2.758,9.69,4.912,15.167,4.324c1.673-0.179,3.339-0.455,5.368-0.24
		c-1.846,1.816-3.559,3.872-5.569,5.395c-3.318,2.514-7.092,3.449-11.061,3.493c-4.357,0.048-8.735,0.002-13.063,0.484
		c-4.55,0.507-8.918,1.957-12.265,6.004c-0.119,0.143-0.3,0.221-0.461,0.31C80.552,40.058,80.481,40.004,80.196,39.908z"/>
	<path d="M30.927,53.054c0-6.59,0.015-13.192-0.015-19.793c-0.005-1.118,0.341-1.524,1.277-1.893
		c5.347-2.105,10.508-2.031,15.618,1.034c2.89,1.734,5.868,3.314,8.909,4.648c2.711,1.189,5.561,0.93,8.357,0.075
		c0.28-0.086,0.604,0.02,1.212,0.053c-2.653,4.722-5.831,8.16-10.613,8.925c-2.231,0.357-4.51,0.29-6.764,0.478
		c-3.035,0.253-6.089,0.388-9.093,0.903c-3.005,0.516-5.593,2.218-7.705,4.815c-0.253,0.311-0.534,0.595-0.823,0.861
		C31.237,53.208,31.085,53.105,30.927,53.054z"/>
	<path d="M51.755,158.491c0-8.118,0-16.124,0-24.298c5.087-0.31,10.176-0.619,15.372-0.936c0,8.418,0,16.768,0,25.233
		C62.036,158.491,57.003,158.491,51.755,158.491z"/>
	<path d="M135.47,158.498c0-8.424,0-16.717,0-25.223c5.112,0.301,10.191,0.6,15.375,0.904c0,8.096,0,16.153,0,24.319
		C145.745,158.498,140.713,158.498,135.47,158.498z"/>
	<path d="M67.114,115.599c-5.15,0.302-10.192,0.597-15.344,0.899c0-7.793,0-15.276,0-22.886c5.113-0.615,10.164-1.222,15.344-1.845
		C67.114,99.692,67.114,107.467,67.114,115.599z"/>
	<path d="M150.839,116.509c-5.205-0.315-10.245-0.619-15.356-0.928c0-8.032,0-15.807,0-23.81c5.156,0.612,10.203,1.212,15.356,1.824
		C150.839,101.142,150.839,108.629,150.839,116.509z"/>
	<path d="M25.464,158.462c0-7.199,0-14.209,0-21.247c5.13-0.749,10.172-1.485,15.339-2.24c0,7.786,0,15.564,0,23.487
		C35.738,158.462,30.658,158.462,25.464,158.462z"/>
	<path d="M177.153,158.508c-5.129,0-10.165,0-15.33,0c0-7.854,0-15.687,0-23.533c5.148,0.752,10.191,1.488,15.33,2.238
		C177.153,144.235,177.153,151.246,177.153,158.508z"/>
	<path d="M161.789,95.907c5.238,1.528,10.306,3.007,15.396,4.493c0,6.494,0,12.79,0,19.463c-2.359-0.17-4.701-0.292-7.036-0.521
		c-2.113-0.208-4.213-0.645-6.327-0.77c-1.456-0.086-2.201-0.436-2.166-2.429c0.106-6.019,0.036-12.043,0.042-18.064
		C161.698,97.454,161.748,96.831,161.789,95.907z"/>
	<path d="M25.471,100.39c5.054-1.475,10.122-2.954,15.458-4.511c0,3.317,0,6.304,0,9.29c0,3.656-0.036,7.313,0.021,10.967
		c0.018,1.117-0.299,1.828-1.225,1.926c-4.484,0.475-8.972,0.893-13.459,1.321c-0.231,0.022-0.469-0.056-0.796-0.101
		C25.471,113.08,25.471,106.941,25.471,100.39z"/>
</g>
</svg>
