<?xml version="1.0" encoding="utf-8"?>
<!-- Generator: Adobe Illustrator 17.0.1, SVG Export Plug-In . SVG Version: 6.00 Build 0)  -->
<!DOCTYPE svg PUBLIC "-//W3C//DTD SVG 1.1//EN" "http://www.w3.org/Graphics/SVG/1.1/DTD/svg11.dtd">
<svg version="1.1" id="Layer_3" xmlns="http://www.w3.org/2000/svg" xmlns:xlink="http://www.w3.org/1999/xlink" x="0px" y="0px"
	 width="202.664px" height="202.664px" viewBox="0 0 202.664 202.664" enable-background="new 0 0 202.664 202.664"
	 xml:space="preserve">
<g>
	<path d="M30.495,67.352h3.173l0.301,0.347v2.966h11.022c1.893,1.849,4.309,4.52,7.249,8.012v7.665c0,0.924-0.401,1.387-1.203,1.387
		H41.05l-0.735-0.848V83.03l-2.271-2.62h-4.075v13.058h10.555c1.537,0,4.108,2.555,7.716,7.665v18.49l-7.549,8.358H33.969v2.967
		l-0.301,0.347h-3.173l-0.301-0.347v-2.967h-11.19l-7.549-8.358v-8.205l0.902-1.04h10.121l0.902,1.04v4.199l2.271,2.619h4.542
		v-13.79H18.403l-6.647-7.319V79.024c1.959-2.362,4.476-5.148,7.549-8.359h10.889v-2.966L30.495,67.352z M23.681,82.683v9.245
		c0.2,0.385,0.757,0.899,1.67,1.541h4.843V80.41h-4.242C24.594,81.592,23.836,82.349,23.681,82.683z M33.969,104.447v13.79h4.208
		c0.601-0.54,1.313-1.412,2.138-2.619v-9.399c-0.601-0.899-1.158-1.489-1.67-1.772H33.969z"/>
	<path d="M62.336,70.241h19.908l0.535,0.578v47.379h8.785l0.501,0.578v8.667l-0.501,0.578H62.336l-0.501-0.578v-8.667l0.501-0.578
		h9.052V79.756h-9.052l-0.501-0.578v-8.358L62.336,70.241z"/>
	<path d="M106.235,70.241h23.114l6.814,8.59v40.253l-7.115,8.937h-22.513l-7.115-8.59V78.831L106.235,70.241z M109.775,83.299
		v31.663l2.372,3.005h10.989l2.672-3.352V83.299l-2.973-3.352h-10.388L109.775,83.299z"/>
	<path d="M142.151,70.241h10.021l0.668,0.732v29.082h0.301c8.886-16.46,14.497-26.399,16.835-29.814H181.6l0.668,0.732
		l-13.929,22.765l14.563,33.898l-0.334,0.385h-11.624c-0.445,0-3.897-7.948-10.354-23.844h-0.334
		c-4.944,8.115-7.416,12.583-7.416,13.405v9.707l-0.668,0.732h-10.021l-0.635-0.732V70.973L142.151,70.241z"/>
</g>
</svg>
