<?xml version="1.0" encoding="utf-8"?>
<!-- Generator: Adobe Illustrator 17.0.1, SVG Export Plug-In . SVG Version: 6.00 Build 0)  -->
<!DOCTYPE svg PUBLIC "-//W3C//DTD SVG 1.1//EN" "http://www.w3.org/Graphics/SVG/1.1/DTD/svg11.dtd">
<svg version="1.1" id="Layer_2" xmlns="http://www.w3.org/2000/svg" xmlns:xlink="http://www.w3.org/1999/xlink" x="0px" y="0px"
	 width="202.664px" height="202.664px" viewBox="0 0 202.664 202.664" enable-background="new 0 0 202.664 202.664"
	 xml:space="preserve">
<g>
	<path d="M12.002,66.037c-2.32,3.17-3.738,7.136-5.555,10.75c0,32.957,0,65.913,0,98.87c0.37,1.775,0.659,3.576,1.123,5.32
		c1.811,6.807,6.971,11.482,13.399,12.04c1.297,0.112,100.656,0,100.656,0s0.554-18.646,0-21.088
		c-1.787-7.876-7.972-12.45-16.212-12.484c-14.718-0.06-29.436-0.018-44.154-0.018c-1.094,0-2.187,0-3.346,0
		c0-21.263,0-42.136,0-63.102c0.402,0.145,0.615,0.152,0.726,0.272c6.893,7.462,13.718,15.002,20.713,22.347
		c1.405,1.475,3.422,3.078,5.204,3.146c8.555,0.328,17.132,0.353,25.689,0.06c3.767-0.129,6.673-3.872,6.884-7.647
		c0.21-3.752-2.064-7.105-5.812-8.312c-1.227-0.395-2.56-0.524-3.847-0.538c-5.402-0.058-10.807,0.036-16.207-0.082
		c-0.981-0.021-2.2-0.496-2.887-1.235C77.196,92.317,66.143,80.156,54.927,68.179c-3.846-4.107-8.275-7.49-13.914-7.691
		c-5.951-0.212-11.917-0.203-17.869-0.005C18.805,60.627,14.708,62.339,12.002,66.037z"/>
	<path d="M174.99,99.581c6.763-1.055,13.528-2.097,20.292-3.143c0-12.487,0-24.973,0-37.46
		c-19.831-5.374-39.627-10.882-59.52-16.017c-4.361-1.126-7.181-2.556-6.875-7.567c0.115-1.89-0.986-2.765-3.12-2.782
		c-7.771-0.062-8.061-0.114-8.223,7.699c-0.254,12.275-0.166,24.558-0.159,36.838c0.006,9.721-0.081,19.447,0.234,29.16
		c0.215,6.627,0.499,6.459,7.04,6.679c3.005,0.101,4.309-0.85,4.48-3.842c0.058-1.015,0.802-2.737,1.462-2.855
		c6.484-1.165,13.017-2.06,19.652-3.049c0,2.943,0,5.433,0,8.113c-4.414,0-8.607,0.12-12.788-0.045
		c-2.5-0.098-3.625,0.935-3.739,3.301c-0.064,1.322-0.096,2.646-0.094,3.969c0.004,2.963,1.415,3.922,4.428,3.89
		c14.121-0.153,28.244-0.066,42.366-0.065c5.326,0,5.843-0.539,5.726-5.965c-0.009-0.409-0.04-0.818-0.054-1.227
		c-0.089-2.682-1.121-4.118-4.159-3.911c-3.521,0.24-7.072,0.056-10.742,0.056c0-4.011,0-7.536,0-11.088
		C172.582,100.015,173.782,99.769,174.99,99.581z"/>
	<path d="M64.237,55.051c11.255-6.056,15.646-19.409,10.116-30.391c-3.631-7.212-9.673-11.068-17.243-12.967
		c-2.252,0-4.503,0-6.755,0c-0.467,0.182-0.92,0.419-1.403,0.537C33.366,16.062,26.217,32.54,34.129,46.415
		C40.071,56.837,53.668,60.737,64.237,55.051z"/>
	<path d="M70.392,128.092c-2.872,0.417-5.268,2.998-6.027,6.444c-1.45,6.587,1.995,11.969,7.774,11.978
		c19.96,0.032,39.92,0.012,59.881,0.013c15.469,0.001,30.938,0.002,46.407,0c4.824-0.001,9.649,0.081,14.471-0.04
		c4.448-0.112,7.429-4.108,7.317-9.541c-0.114-5.544-3.231-8.934-8.317-8.935c-39.837-0.011-79.674-0.007-119.512-0.003
		C71.721,128.009,71.05,127.996,70.392,128.092z"/>
</g>
</svg>
