<?xml version="1.0" encoding="utf-8"?>
<!-- Generator: Adobe Illustrator 17.0.1, SVG Export Plug-In . SVG Version: 6.00 Build 0)  -->
<!DOCTYPE svg PUBLIC "-//W3C//DTD SVG 1.1//EN" "http://www.w3.org/Graphics/SVG/1.1/DTD/svg11.dtd">
<svg version="1.1" id="Layer_3" xmlns="http://www.w3.org/2000/svg" xmlns:xlink="http://www.w3.org/1999/xlink" x="0px" y="0px"
	 width="202.664px" height="202.664px" viewBox="0 0 202.664 202.664" enable-background="new 0 0 202.664 202.664"
	 xml:space="preserve">
<g>
	<path d="M17.263,133.873c0.837,2.321,1.789,4.641,2.83,6.892l2.23-1.033c-1.01-2.186-1.934-4.439-2.748-6.693L17.263,133.873z"/>
	<path d="M23.513,147.381c1.229,2.145,2.57,4.26,3.984,6.294l2.017-1.406c-1.373-1.972-2.675-4.028-3.87-6.111L23.513,147.381z"/>
	<path d="M17.495,68.149l2.305,0.853c0.835-2.256,1.777-4.499,2.8-6.665l-2.223-1.05C19.323,63.518,18.353,65.826,17.495,68.149z"/>
	<path d="M32.014,159.597c1.583,1.896,3.266,3.75,5.008,5.506l1.746-1.733c-1.69-1.703-3.328-3.505-4.867-5.349L32.014,159.597z"/>
	<path d="M23.849,54.703l2.122,1.239c1.215-2.076,2.532-4.121,3.917-6.08l-2.008-1.419C26.455,50.457,25.098,52.564,23.849,54.703z"
		/>
	<path d="M42.995,32.072l1.576,1.887c1.846-1.542,3.78-3.02,5.75-4.391l-1.406-2.017C46.887,28.962,44.895,30.484,42.995,32.072z"/>
	<path d="M42.486,170.164c1.885,1.599,3.865,3.136,5.882,4.564l1.422-2.008c-1.96-1.386-3.883-2.877-5.715-4.434L42.486,170.164z"/>
	<path d="M15.885,119.069l-2.423,0.419c0.422,2.444,0.955,4.891,1.584,7.275l2.377-0.628
		C16.811,123.82,16.293,121.443,15.885,119.069z"/>
	<path d="M120.07,13.565c-2.438-0.436-4.919-0.772-7.378-0.994l-0.222,2.449c2.388,0.216,4.8,0.541,7.165,0.965L120.07,13.565z"/>
	<path d="M54.623,178.767c2.137,1.252,4.352,2.423,6.582,3.479l1.053-2.223c-2.166-1.023-4.318-2.161-6.392-3.374L54.623,178.767z"
		/>
	<path d="M134.429,17.465c-2.312-0.85-4.698-1.614-7.094-2.264l-0.644,2.371c2.325,0.634,4.643,1.375,6.888,2.202L134.429,17.465z"
		/>
	<path d="M186.75,83.422L189.173,83c-0.427-2.442-0.965-4.888-1.599-7.273l-2.377,0.634
		C185.815,78.676,186.337,81.051,186.75,83.422z"/>
	<path d="M185.343,68.622c-0.844-2.32-1.8-4.636-2.845-6.884l-2.23,1.036c1.015,2.182,1.945,4.434,2.763,6.688L185.343,68.622z"/>
	<rect x="97.907" y="12.215" width="7.344" height="2.459"/>
	<path d="M15.026,90.107l-2.449-0.226c-0.226,2.464-0.348,4.965-0.361,7.435l2.459,0.013C14.688,94.929,14.806,92.5,15.026,90.107z"
		/>
	<path d="M17.595,75.888l-2.37-0.647c-0.651,2.385-1.203,4.829-1.643,7.262l2.42,0.438C16.427,80.577,16.963,78.203,17.595,75.888z"
		/>
	<path d="M90.681,14.975l-0.209-2.449c-2.465,0.209-4.949,0.53-7.383,0.95l0.419,2.423C85.872,15.49,88.286,15.179,90.681,14.975z"
		/>
	<path d="M14.673,104.848v-0.18l-2.459,0.18c0,2.413,0.103,4.854,0.304,7.255l2.449-0.206
		C14.773,109.564,14.673,107.192,14.673,104.848z"/>
	<path d="M76.445,17.447l-0.631-2.377c-2.384,0.633-4.774,1.381-7.105,2.223l0.834,2.312C71.809,18.787,74.13,18.061,76.445,17.447z
		"/>
	<path d="M32.44,42.554l1.877,1.589c1.558-1.841,3.209-3.629,4.908-5.316l-1.733-1.743C35.744,38.82,34.044,40.661,32.44,42.554z"/>
	<path d="M173.049,50.248c1.377,1.968,2.683,4.023,3.883,6.104l2.129-1.226c-1.234-2.145-2.58-4.259-3.997-6.288L173.049,50.248z"/>
	<path d="M152.201,173.198l1.399,2.021c2.016-1.396,4.01-2.913,5.93-4.506l-1.569-1.89
		C156.096,170.37,154.158,171.841,152.201,173.198z"/>
	<path d="M172.674,152.943l2.004,1.426c1.429-2.014,2.789-4.116,4.043-6.252l-2.119-1.242
		C175.385,148.947,174.062,150.988,172.674,152.943z"/>
	<path d="M152.731,29.837c1.962,1.385,3.888,2.872,5.724,4.424l1.586-1.88c-1.89-1.596-3.873-3.127-5.89-4.551L152.731,29.837z"/>
	<path d="M55.204,23.559l1.226,2.132c2.084-1.2,4.244-2.32,6.422-3.33l-1.033-2.23C59.575,21.171,57.35,22.325,55.204,23.559z"/>
	<path d="M163.776,39.157c1.7,1.712,3.342,3.508,4.877,5.344l1.887-1.576c-1.581-1.89-3.27-3.74-5.021-5.501L163.776,39.157z"/>
	<path d="M187.622,112.733l2.449,0.229c0.231-2.462,0.358-4.963,0.376-7.434l-2.459-0.016
		C187.97,107.91,187.847,110.339,187.622,112.733z"/>
	<path d="M190.131,90.381l-2.449,0.209c0.204,2.39,0.309,4.821,0.309,7.228v0.358h2.459v-0.358
		C190.45,95.341,190.342,92.84,190.131,90.381z"/>
	<path d="M185.022,126.944l2.37,0.654c0.654-2.377,1.213-4.82,1.659-7.26l-2.42-0.441
		C186.199,122.265,185.658,124.637,185.022,126.944z"/>
	<path d="M179.987,140.484l2.22,1.056c1.058-2.227,2.034-4.533,2.899-6.856l-2.305-0.857
		C181.962,136.081,181.014,138.323,179.987,140.484z"/>
	<path d="M163.315,163.962l1.73,1.746c1.767-1.746,3.471-3.583,5.061-5.46l-1.873-1.589
		C166.686,160.479,165.033,162.261,163.315,163.962z"/>
	<path d="M82.414,189.066c2.426,0.441,4.908,0.781,7.376,1.01l0.229-2.446c-2.398-0.226-4.81-0.556-7.164-0.984L82.414,189.066z"/>
	<path d="M111.81,187.703l0.203,2.452c2.46-0.203,4.947-0.52,7.388-0.942l-0.419-2.42C116.613,187.199,114.2,187.506,111.81,187.703
		z"/>
	<rect x="97.235" y="187.99" width="7.344" height="2.459"/>
	<path d="M68.067,185.136c2.333,0.866,4.72,1.635,7.09,2.282l0.647-2.374c-2.302-0.628-4.617-1.37-6.884-2.21L68.067,185.136z"/>
	<path d="M139.652,180.378l1.03,2.23c2.233-1.03,4.461-2.178,6.621-3.414l-1.22-2.132
		C143.985,178.26,141.822,179.375,139.652,180.378z"/>
	<path d="M140.246,22.562c2.174,1.025,4.327,2.156,6.4,3.366l1.239-2.125c-2.135-1.244-4.354-2.41-6.59-3.464L140.246,22.562z"/>
	<path d="M126.051,185.263l0.624,2.38c2.407-0.634,4.8-1.377,7.115-2.21l-0.834-2.315
		C130.71,183.929,128.387,184.652,126.051,185.263z"/>
	<path d="M101.334,64.701c-20.198,0-36.632,16.433-36.632,36.632s16.433,36.632,36.632,36.632s36.63-16.433,36.63-36.632
		S121.532,64.701,101.334,64.701z M101.334,134.597c-18.341,0-33.264-14.923-33.264-33.264c0-18.341,14.923-33.264,33.264-33.264
		s33.262,14.923,33.262,33.264C134.596,119.674,119.675,134.597,101.334,134.597z"/>
	<circle cx="101.333" cy="101.333" r="19.237"/>
</g>
</svg>
